<?xml version="1.0" encoding="utf-8"?>
<!-- Generator: Adobe Illustrator 26.0.1, SVG Export Plug-In . SVG Version: 6.00 Build 0)  -->
<svg version="1.1" id="Layer_1" xmlns="http://www.w3.org/2000/svg" xmlns:xlink="http://www.w3.org/1999/xlink" x="0px" y="0px"
	 viewBox="0 0 1692 746" style="enable-background:new 0 0 1692 746;" xml:space="preserve">
<style type="text/css">
	.st0{fill:#F1CF5F;}
	.st1{fill:#D9981E;}
	.st2{opacity:0.5;fill:#E4AE35;enable-background:new    ;}
	.st3{fill:#E4AE35;}
	.st4{fill:#DBB39A;}
	.st5{opacity:0.7;fill:#4C3451;enable-background:new    ;}
	.st6{fill:#C69181;}
	.st7{fill:#422F49;}
	.st8{fill:#F2E2D6;}
	.st9{fill:#D9B39B;}
	.st10{fill:#4C3451;}
	.st11{fill:#E09F25;}
	.st12{opacity:0.5;fill:#F1CF5F;enable-background:new    ;}
	.st13{fill:#FAD665;}
	.st14{opacity:0.9;fill:#4D61AC;enable-background:new    ;}
	.st15{fill:#98B7D6;}
	.st16{fill:#7192D1;}
	.st17{fill:#5E7ECF;}
	.st18{fill:#4A58A0;}
	.st19{fill:#7799E5;}
	.st20{fill:#435CA6;}
	.st21{fill:#E3F1F6;}
	.st22{fill:#ABCBF1;}
	.st23{fill:#5A7ED0;}
	.st24{fill:#EC8386;}
	.st25{fill:#96374E;}
	.st26{fill:#C03F58;}
	.st27{fill:#913449;}
	.st28{fill:#EB9291;}
	.st29{fill:#DA7577;}
	.st30{fill:#532242;}
</style>
<path class="st0" d="M1603.5,119.8c-36.5-15.9-67.5-28.4-62.2-49.2c0.3-1.2,8.3-18,8.8-19.1c9.1-21,47.8-24.3,86.4-7.6
	s62.5,47.3,53.4,68.3c-1.1,2.5-8.1,19.7-10,21.6C1666.1,148.6,1637.6,134.6,1603.5,119.8z"/>
<path class="st1" d="M1679.9,133.8c1.8-2,8.9-19.2,10-21.6c8.2-18.9-10.5-45.7-42.7-63.1c-11.1-1.3-22.3,0.1-32.8,4
	c-24,8.9-40.2,29.3-43.9,51.8c9.7,4.9,21,9.7,32.9,14.9C1637.6,134.6,1666.1,148.6,1679.9,133.8z"/>
<path class="st0" d="M1594.3,139.9c-38.6-16.8-62.5-47.4-53.4-68.3s47.8-24.3,86.4-7.6c38.6,16.8,62.5,47.4,53.4,68.3
	S1632.9,156.6,1594.3,139.9z"/>
<path class="st2" d="M1601.1,73.7c38.6,16.8,62.5,47.4,53.4,68.3c-1.4,3.1-3.4,5.9-6,8.2c15.6-1.4,27.6-7.4,32.2-17.9
	c9.1-20.9-14.8-51.5-53.4-68.3c-32.8-14.3-65.7-13.9-80.4-0.6C1562.5,62,1581.8,65.3,1601.1,73.7z"/>
<path class="st1" d="M290.2,378.1c36.5,27.8,67.6,50.4,56,72.2c-0.7,1.2-14.2,17.8-15.1,19c-16,20.9-60.2,14-98.7-15.4
	s-56.9-70.2-40.9-91.1c1.9-2.5,14.5-19.7,17.1-21.5C228.2,328.6,256.2,352.2,290.2,378.1z"/>
<path class="st3" d="M208.7,341.3c-2.6,1.7-15.3,19-17.1,21.5c-14.4,18.9-0.9,54,30.3,82.3c12,4.5,25,6.1,37.7,4.6
	c29.3-3.3,53-21.7,63.3-45.8c-9.5-8.1-20.8-16.6-32.7-25.7C256.2,352.2,228.2,328.6,208.7,341.3z"/>
<path class="st0" d="M306.1,358.2c38.6,29.4,56.9,70.2,40.9,91.1c-16,20.9-60.2,14-98.7-15.4s-56.9-70.2-40.9-91.1
	S267.5,328.8,306.1,358.2z"/>
<path class="st1" d="M280.2,430.3c-38.6-29.4-56.9-70.2-40.9-91.1c2.4-3.1,5.5-5.7,9-7.5c-17.9-2.8-32.9,0.7-40.9,11.2
	c-16,20.9,2.4,61.7,40.9,91.1c32.8,25,69.6,33.7,89.7,22.9C320.1,454.1,299.4,445,280.2,430.3z"/>
<path class="st4" d="M156,431.6c-17.6-9.9-37.7-14.3-57.8-12.7c-20.1,1.6-39.3,9-55.1,21.5c-15.8,12.5-27.6,29.3-33.9,48.5
	C2.9,508,2.5,528.6,8,548c5.5,19.4,16.5,36.8,31.8,49.9C55.1,611,74,619.3,94,621.7c20,2.4,40.3-1.2,58.3-10.3
	c18-9.1,32.8-23.4,42.7-41c13.2-23.6,16.6-51.4,9.3-77.5C196.9,466.9,179.6,444.8,156,431.6z"/>
<path class="st5" d="M163.3,549.2c-12.3,21.9-32.2,38.5-56,46.6c-23.8,8.1-49.7,7.1-72.8-2.7c10.7,10.5,23.6,18.6,37.7,23.5
	c14.1,5,29.2,6.8,44.1,5.3c14.9-1.5,29.3-6.3,42.2-14c12.9-7.7,23.8-18.2,32.2-30.6c8.3-12.5,13.8-26.6,16.1-41.4
	c2.3-14.8,1.2-30-3.1-44.3s-11.7-27.6-21.6-38.8c-10-11.2-22.3-20-36.1-25.9c15.9,15.7,26.2,36.2,29.4,58.3
	C178.5,507.2,174.3,529.7,163.3,549.2z"/>
<path class="st6" d="M163.3,418.9c-17.6-9.9-37.7-14.3-57.8-12.7c-20.1,1.6-39.3,9-55.1,21.5c-15.8,12.5-27.6,29.3-33.9,48.5
	c-6.3,19.2-6.7,39.8-1.2,59.2c5.5,19.4,16.5,36.8,31.8,49.9c15.3,13.1,34.2,21.4,54.2,23.8c20,2.4,40.3-1.2,58.3-10.3
	c18-9.1,32.8-23.4,42.7-41c6.6-11.7,10.7-24.5,12.3-37.8c1.6-13.3,0.5-26.8-3.1-39.6c-3.6-12.9-9.7-24.9-18-35.5
	C185.3,434.3,175,425.5,163.3,418.9z"/>
<path class="st7" d="M154.2,439.4c-13-7.3-27.9-10.6-42.8-9.4c-14.9,1.2-29.1,6.7-40.8,15.9c-11.7,9.2-20.5,21.7-25.1,35.9
	c-4.6,14.2-4.9,29.4-0.9,43.8c4,14.4,12.2,27.2,23.6,36.9c11.3,9.7,25.3,15.8,40.1,17.6c14.8,1.8,29.8-0.9,43.1-7.7
	c13.3-6.8,24.3-17.3,31.6-30.3c9.8-17.4,12.3-38.1,6.9-57.3C184.5,465.6,171.7,449.2,154.2,439.4z"/>
<path class="st8" d="M151.1,442.2c-12.7-7.1-27.2-10.3-41.8-9.2c-14.5,1.1-28.4,6.5-39.8,15.5s-20,21.2-24.5,35.1
	c-4.5,13.8-4.8,28.7-0.9,42.8c3.9,14,11.9,26.6,23,36c11.1,9.5,24.7,15.5,39.2,17.2c14.5,1.7,29.1-0.9,42.1-7.5
	c13-6.6,23.7-16.9,30.9-29.6c4.7-8.4,7.8-17.7,8.9-27.3c1.1-9.6,0.4-19.3-2.2-28.6c-2.6-9.3-7-18-13-25.6
	C167,453.3,159.6,446.9,151.1,442.2z"/>
<path class="st9" d="M172.9,490.7c-6.5,11.5-16,21.1-27.4,27.8c-11.5,6.6-24.5,10-37.8,9.8c-13.2-0.2-26.2-3.9-37.5-10.8
	c-11.3-6.9-20.5-16.8-26.7-28.5c-2.8,11.6-2.8,23.7,0.1,35.2c2.9,11.6,8.5,22.3,16.5,31.2c7.9,8.9,17.9,15.7,29.1,19.9
	c11.2,4.2,23.2,5.6,35,4.2c11.8-1.5,23.1-5.8,32.9-12.6c9.8-6.8,17.8-15.9,23.3-26.4s8.4-22.3,8.4-34.2s-2.9-23.7-8.5-34.2
	C178.7,478.6,176.2,484.8,172.9,490.7z"/>
<path class="st10" d="M75.2,532l10.1-15.2l-16-10.5l-10.5,16l15.9,10.5L75.2,532z"/>
<path class="st10" d="M158.4,525.5L158.4,525.5l-15.7-10.3l-18.1,27.5l-27.8-18.3l-10.6,16v0l43.6,28.7L158.4,525.5L158.4,525.5z"/>
<path class="st10" d="M149.2,480l-43.6-28.7l-28.4,43.1l16,10.6l18-27.2l27.5,18.1L149.2,480L149.2,480z"/>
<path class="st10" d="M160.8,487.7L160.8,487.7l-10.4,15.9l15.4,10.1l0.3,0.2l10.4-15.8L160.8,487.7z"/>
<path class="st10" d="M114.8,496.5L104,513l16.5,10.8l10.8-16.5L114.8,496.5z"/>
<path class="st6" d="M76.5,527.6l10.1-15.2l-16-10.5l-10.5,16L76,528.4L76.5,527.6z"/>
<path class="st6" d="M159.7,521.1L159.7,521.1L144,510.8l-18.1,27.5L98.1,520l-10.6,16v0l43.6,28.7L159.7,521.1L159.7,521.1z"/>
<path class="st6" d="M150.5,475.6l-43.6-28.7L78.4,490l16,10.6l18-27.2l27.5,18.1L150.5,475.6L150.5,475.6z"/>
<path class="st6" d="M162.1,483.3L162.1,483.3l-10.4,15.9l15.4,10.1l0.3,0.2l10.4-15.8L162.1,483.3z"/>
<path class="st6" d="M116.1,492.1l-10.8,16.5l16.5,10.8l10.9-16.5L116.1,492.1z"/>
<path class="st11" d="M1487.8,374.5c-13.6-23.8,0.7-57,32.1-74.1c31.4-17.1,67.8-11.7,81.5,12.1c1.7,2.9,9.6,15.7,9.6,15.7
	s-14.1,43.4-41.7,58.4c-29.1,15.9-69.5,5.7-69.5,5.7S1488.7,376.2,1487.8,374.5z"/>
<path class="st12" d="M1551.3,309.1c0-6.4-1.1-12.7-3.3-18.7c-9.9,1.4-19.5,4.5-28.2,9.4c-29,15.9-43.5,45.5-34.6,68.7
	c0.8,0,1.6,0.1,2.4,0.1C1522.8,368.4,1551.3,341.8,1551.3,309.1z"/>
<path class="st13" d="M1496,387.6c-14.6-25.5-1-60,30.3-77.1c31.4-17.1,68.6-10.4,83.2,15.1s1,60-30.3,77.1
	C1547.8,419.8,1510.6,413.1,1496,387.6z"/>
<path class="st3" d="M1509.1,383.5c-11-19.2,0.3-45.7,25.1-59.3c24.9-13.6,53.9-9.1,64.9,10.1c11,19.2-0.3,45.7-25.1,59.3
	C1549.1,407.2,1520.1,402.7,1509.1,383.5z"/>
<path class="st1" d="M1572.5,342.7c9.7,16.9-0.2,40.4-22.2,52.4c-4.7,2.6-9.7,4.5-14.9,5.6c12,2.1,25.8-0.1,38.5-7.1
	c24.9-13.6,36.1-40.2,25.1-59.3c-11-19.2-40.1-23.7-64.9-10.1c-2.6,1.4-5.1,3-7.5,4.8C1545.4,323.5,1564.5,328.6,1572.5,342.7z"/>
<path class="st14" d="M226.9,638.4c2.3-3.5,25.5,8.6,51.7,26.9s45.7,36,43.4,39.5c-2.3,3.5-25.5-8.6-51.7-26.9
	S224.6,641.9,226.9,638.4z"/>
<path class="st15" d="M226.9,638.4l-9.7,16.6c10.8,12.1,26.5,24.3,44.3,36.7c18.5,12.9,36.4,24.3,50.9,29.9l9.6-16.9
	c-1.4,0.8-38.9-21.1-60.9-37.4C248.4,657.9,234.5,649.8,226.9,638.4z"/>
<path class="st16" d="M299.6,692.6c-12.4-7.4-27.4-17.1-38.5-25.3c-12.8-9.5-26.7-17.6-34.2-28.9l-9.7,16.6
	c10.7,11.9,26.2,24,43.7,36.3C276.2,695.1,289.8,695.6,299.6,692.6z"/>
<path class="st14" d="M1467.4,254.3c-4.1-2.5,7.5-29.2,25.9-59.8c18.4-30.6,36.6-53.3,40.7-50.9c4.1,2.5-7.5,29.2-25.9,59.8
	C1489.7,234,1471.4,256.8,1467.4,254.3z"/>
<path class="st15" d="M1467.4,254.3l19.4,10.2c12.6-12.8,25-31.1,37.5-51.8c13-21.5,24.2-42.3,29.4-58.9l-19.7-10.1
	c1,1.5-20.5,44.9-37,70.6C1487.4,229.2,1479.4,245.3,1467.4,254.3z"/>
<path class="st16" d="M1522.2,169.6c-7.3,14.3-16.9,31.8-25.2,44.7c-9.6,14.9-17.5,31-29.6,40.1l19.4,10.2
	c12.5-12.7,24.8-30.7,37.1-51.1C1526.8,196,1526.3,180.6,1522.2,169.6z"/>
<path class="st17" d="M401.7,188.5c15.5-15.3,26.1-34.8,30.5-56.1c4.4-21.3,2.4-43.5-5.8-63.6c-8.2-20.2-22.2-37.5-40.2-49.7
	c-18-12.2-39.2-18.8-61-19c-21.8-0.2-43.1,6.1-61.3,18.1c-18.2,12-32.4,29-40.9,49.1c-8.5,20.1-10.8,42.2-6.7,63.5
	c4.1,21.4,14.4,41.1,29.7,56.6c20.5,20.8,48.4,32.6,77.6,32.8C352.8,220.3,380.9,209,401.7,188.5z"/>
<path class="st18" d="M278,163c-19-19.3-30.3-45-31.5-72.1c-1.3-27.1,7.5-53.7,24.6-74.7c-14.1,7.9-26.3,18.9-35.7,32.1
	c-9.4,13.2-15.8,28.3-18.7,44.2c-2.9,15.9-2.2,32.3,1.9,48c4.2,15.7,11.7,30.2,22.1,42.6c10.4,12.4,23.5,22.3,38.2,29.1
	c14.7,6.8,30.7,10.2,46.9,10.1c16.2-0.1,32.2-3.8,46.8-10.8c14.6-7,27.5-17.2,37.7-29.7c-21.1,11.8-45.4,16.4-69.3,13
	S294.9,180.2,278,163z"/>
<path class="st19" d="M398.6,197.2c15.5-15.3,26.1-34.8,30.5-56.1c4.4-21.3,2.4-43.5-5.8-63.6s-22.2-37.5-40.2-49.7
	c-18-12.2-39.2-18.8-61-19c-21.8-0.2-43.1,6.1-61.3,18.1s-32.4,29-40.9,49.1c-8.5,20-10.8,42.2-6.7,63.5
	c4.1,21.4,14.4,41.1,29.7,56.6c10.1,10.3,22.2,18.5,35.5,24.1c13.3,5.6,27.6,8.6,42.1,8.7c14.5,0.1,28.8-2.6,42.2-8.1
	C376.1,215.3,388.3,207.3,398.6,197.2z"/>
<path class="st20" d="M380.2,170.9c11.2-11,18.9-25.2,22.1-40.6c3.2-15.4,1.7-31.4-4.2-46c-5.9-14.6-16-27.1-29-35.9
	c-13-8.8-28.4-13.6-44.1-13.7c-15.7-0.1-31.1,4.4-44.3,13.1c-13.1,8.6-23.4,21-29.6,35.5c-6.1,14.5-7.8,30.5-4.9,45.9
	s10.4,29.7,21.5,40.9c14.8,15,35,23.6,56.1,23.7C344.8,193.9,365.1,185.7,380.2,170.9z"/>
<path class="st21" d="M377.2,175.4c11.2-11,18.9-25.2,22.1-40.6c3.2-15.4,1.7-31.4-4.2-46c-5.9-14.6-16-27.1-29-35.9
	c-13-8.8-28.4-13.6-44.1-13.7c-15.7-0.1-31.1,4.4-44.3,13.1c-13.1,8.6-23.4,21-29.6,35.5c-6.1,14.5-7.8,30.5-4.9,45.9
	c3,15.5,10.4,29.7,21.5,40.9c7.3,7.4,16.1,13.4,25.7,17.4c9.6,4.1,19.9,6.2,30.4,6.3c10.4,0.1,20.8-1.9,30.5-5.8
	C360.9,188.5,369.8,182.8,377.2,175.4z"/>
<path class="st22" d="M266.2,118.1c9.4-9.2,21-15.9,33.6-19.6c12.6-3.7,26-4.1,38.9-1.4c12.9,2.7,24.9,8.6,34.9,17.1
	c10.1,8.5,17.9,19.3,22.7,31.5c4.5-12.1,5.9-25.2,4.3-38c-1.7-12.8-6.4-25-13.9-35.6c-7.5-10.6-17.4-19.2-28.9-25.1
	c-11.5-5.9-24.3-8.9-37.2-8.7c-12.9,0.1-25.6,3.4-37,9.6c-11.4,6.1-21.1,15-28.3,25.7c-7.2,10.7-11.7,23.1-13.1,35.9
	c-1.4,12.9,0.4,25.9,5.1,37.9C251.3,136.4,257.8,126.4,266.2,118.1z"/>
<path class="st18" d="M346.5,128.8c-2.5-4.4-6.4-7.6-11.9-9.6l0.1-0.2c4.5-0.3,8.8-1.9,12.3-4.8c3.4-2.9,5.8-6.9,6.8-11.3
	c0.7-2.6,0.8-5.3,0.3-8c-0.5-2.6-1.6-5.1-3.3-7.3c-2.4-3.2-5.7-5.7-9.4-7.3c0.7-1.4,1.2-2.9,1.6-4.4c1.5-6,0.4-11.5-2.4-12.2
	c-2.8-0.7-6.3,3.7-7.7,9.7c-0.3,1.3-0.5,2.7-0.6,4.1l-4-1c0.6-1.3,1-2.6,1.3-3.9c1.5-6,0.4-11.5-2.4-12.2c-2.8-0.7-6.2,3.7-7.7,9.7
	c-0.3,1.3-0.5,2.7-0.6,4.1l-7.4-1.8c-0.1,0-0.3-0.1-0.4-0.1c-6.4-1.6-12.1-0.9-12.7,1.5c-0.6,2.4,4.1,5.7,10.6,7.2l0.4,0.1l-16,65.3
	l-0.4-0.1c-6.4-1.6-12.1-0.9-12.7,1.5c-0.6,2.4,4.1,5.7,10.6,7.2l0.4,0.1l7.4,1.8c-0.6,1.3-1,2.6-1.3,3.9c-1.5,6-0.4,11.5,2.4,12.2
	c2.8,0.7,6.2-3.7,7.7-9.7c0.3-1.3,0.5-2.7,0.6-4.1l4,1c-0.6,1.3-1,2.6-1.3,3.9c-1.5,6-0.4,11.5,2.4,12.2c2.8,0.7,6.2-3.7,7.7-9.7
	c0.4-1.5,0.6-3,0.6-4.6c5.1,0.4,10.2-0.5,14.8-2.9c6.2-3.1,10.1-8.3,11.8-15.4C349.5,138.3,349,133.2,346.5,128.8z M343.2,102.3
	c-1.1,4.7-3.5,7.9-7.2,9.7c-3.7,1.8-8.2,2.1-13.5,0.8l-9.9-2.4l6.5-26.8l11.2,2.7C340.9,88.9,345.2,94.2,343.2,102.3L343.2,102.3z
	 M330.6,151.3c-3.8,1.9-8.6,2.2-14.3,0.8l-13.2-3.2l7.3-29.8l11.2,2.7c13.3,3.3,18.8,9.8,16.4,19.6
	C336.8,146.1,334.4,149.4,330.6,151.3L330.6,151.3z"/>
<path class="st23" d="M344,128.3c-2.5-4.4-6.4-7.6-11.9-9.6l0.1-0.2c4.5-0.2,8.8-1.9,12.3-4.8c3.4-2.9,5.8-6.9,6.8-11.3
	c0.7-2.6,0.8-5.3,0.3-8c-0.5-2.6-1.6-5.1-3.3-7.3c-2.4-3.2-5.7-5.7-9.4-7.3c0.7-1.4,1.2-2.9,1.6-4.4c1.5-6,0.4-11.5-2.4-12.2
	c-2.8-0.7-6.2,3.7-7.7,9.7c-0.3,1.3-0.5,2.7-0.6,4.1l-4-1c0.6-1.3,1-2.6,1.3-3.9c1.5-6,0.4-11.5-2.4-12.2c-2.8-0.7-6.2,3.7-7.7,9.7
	c-0.3,1.3-0.5,2.7-0.6,4.1l-7.4-1.8c-0.1,0-0.3-0.1-0.4-0.1c-6.4-1.6-12.1-0.9-12.7,1.5c-0.6,2.4,4.1,5.7,10.6,7.2
	c0.1,0,0.3,0.1,0.4,0.1l-16,65.3c-0.1,0-0.3-0.1-0.4-0.1c-6.4-1.6-12.1-0.9-12.7,1.5s4.1,5.7,10.6,7.2c0.1,0,0.3,0.1,0.4,0.1
	l7.4,1.8c-0.6,1.3-1,2.6-1.3,3.9c-1.5,6-0.4,11.5,2.4,12.2c2.8,0.7,6.2-3.7,7.7-9.7c0.3-1.3,0.5-2.7,0.6-4.1l4,1
	c-0.6,1.3-1,2.6-1.3,3.9c-1.5,6-0.4,11.5,2.4,12.2s6.2-3.7,7.7-9.7c0.4-1.5,0.6-3,0.7-4.6c5.1,0.4,10.2-0.5,14.8-2.9
	c6.2-3.1,10.1-8.3,11.8-15.4C347.1,137.7,346.5,132.7,344,128.3z M340.7,101.8c-1.1,4.7-3.5,7.9-7.2,9.7c-3.7,1.8-8.2,2.1-13.5,0.8
	l-10-2.4l6.5-26.8l11.2,2.7C338.4,88.4,342.7,93.7,340.7,101.8L340.7,101.8z M328.1,150.8c-3.8,1.9-8.6,2.2-14.3,0.8l-13.2-3.2
	l7.3-29.8l11.2,2.7c13.3,3.3,18.8,9.8,16.4,19.6C334.4,145.6,331.9,148.9,328.1,150.8L328.1,150.8z"/>
<path class="st24" d="M262.3,187.2c-6.6-25.5-20.6-48.5-40.3-66c-19.7-17.5-44.1-28.9-70.2-32.5c-26.1-3.7-52.7,0.5-76.4,12
	c-23.7,11.5-43.5,29.7-56.9,52.4s-19.7,48.9-18.2,75.2c1.5,26.3,10.8,51.6,26.6,72.6c15.9,21,37.6,36.9,62.5,45.6
	c24.9,8.7,51.8,9.8,77.3,3.2c34.2-8.9,63.5-30.9,81.4-61.4C266,257.8,271.1,221.5,262.3,187.2z"/>
<path class="st25" d="M158,300.7c-31.8,8.2-65.5,4.4-94.6-10.7C34.2,274.9,11.7,249.6,0,218.9c-0.3,19.6,3.8,39,11.9,56.9
	c8.1,17.9,20.1,33.7,35,46.4s32.5,22,51.4,27.1c18.9,5.1,38.8,6,58.1,2.6c19.3-3.4,37.6-11,53.7-22.3s29.4-26,39-43
	c9.7-17,15.5-36,17-55.6c1.5-19.6-1.3-39.2-8.3-57.5c-0.4,29.2-10.4,57.5-28.4,80.5C211.4,276.9,186.3,293.3,158,300.7z"/>
<path class="st26" d="M275.5,178.4c-6.6-25.5-20.6-48.5-40.3-66c-19.7-17.5-44.1-28.9-70.2-32.5c-26.1-3.7-52.7,0.5-76.4,12
	c-23.7,11.5-43.5,29.7-56.9,52.4S12,193.1,13.5,219.4C15,245.7,24.3,271,40.1,292c15.9,21,37.6,36.9,62.5,45.6
	c24.9,8.7,51.8,9.8,77.3,3.2c16.9-4.4,32.9-12.1,46.8-22.6s25.7-23.7,34.6-38.8c8.9-15.1,14.7-31.8,17.1-49.1
	S279.9,195.4,275.5,178.4z"/>
<path class="st27" d="M243.9,186.6c-4.8-18.4-14.9-35-29.1-47.7c-14.2-12.7-31.9-20.9-50.7-23.5c-18.9-2.6-38.1,0.4-55.2,8.6
	c-17.2,8.3-31.5,21.5-41.1,37.9c-9.7,16.4-14.2,35.3-13.2,54.3c1.1,19,7.8,37.3,19.2,52.5c11.5,15.2,27.2,26.7,45.2,33
	s37.4,7.1,55.9,2.3c24.7-6.4,45.9-22.4,58.9-44.4C246.6,237.6,250.3,211.3,243.9,186.6z"/>
<path class="st28" d="M235.9,188.1c-4.8-18.4-14.9-35-29.1-47.7c-14.2-12.7-31.9-20.9-50.7-23.5c-18.9-2.6-38.1,0.4-55.2,8.6
	c-17.2,8.3-31.5,21.5-41.1,37.9s-14.2,35.3-13.2,54.3c1.1,19,7.8,37.3,19.2,52.5c11.5,15.2,27.2,26.7,45.2,33
	c18,6.3,37.4,7.1,55.9,2.3c12.2-3.2,23.7-8.7,33.8-16.3c10.1-7.6,18.6-17.1,25-28c6.4-10.9,10.6-23,12.4-35.5
	C239.7,213.1,239,200.3,235.9,188.1z"/>
<path class="st29" d="M93.8,248.8c-3.8-14.5-4.1-29.7-0.9-44.3c3.1-14.6,9.6-28.3,19-40c9.4-11.7,21.3-21,34.9-27.3
	c13.6-6.3,28.5-9.3,43.4-8.8c-12.7-7.2-26.9-11.5-41.4-12.4c-14.6-0.9-29.2,1.4-42.7,7c-13.5,5.5-25.6,14.1-35.3,25
	c-9.7,10.9-16.9,23.9-20.8,37.9c-4,14.1-4.7,28.8-2.1,43.2c2.6,14.4,8.4,28,17,39.8c8.6,11.8,19.8,21.5,32.7,28.3
	c12.9,6.8,27.2,10.6,41.8,11.1c-11.2-6.4-21-14.9-28.8-25.1S97.1,261.3,93.8,248.8z"/>
<path class="st30" d="M192.5,176.5l4.9-15.9l-65.3,14.8l-65.3,14.8l11.3,12.2L192.5,176.5z"/>
<path class="st30" d="M89.5,214.7l22.8,24.6l45.5,49.2l19.8-64l9.9-32.1L89.5,214.7z M158.4,236.2l-7.2,23.2l-16.5-17.9l-16.5-17.9
	l23.7-5.4l23.7-5.4L158.4,236.2z"/>
<path class="st26" d="M193.7,168.7l4.9-15.9l-65.3,14.8L68,182.4l11.3,12.2L193.7,168.7z"/>
<path class="st26" d="M90.6,206.9l22.8,24.7l45.5,49.2l19.8-64l9.9-32.1L90.6,206.9z M159.5,228.4l-7.2,23.2l-16.5-17.9l-16.5-17.9
	l23.7-5.4l23.7-5.4L159.5,228.4z"/>
<path class="st17" d="M1479.5,504.1c2.8-21.6-0.8-43.5-10.5-63c-9.6-19.5-24.8-35.7-43.7-46.6c-18.9-10.9-40.5-15.9-62.2-14.5
	c-21.7,1.4-42.5,9.3-59.8,22.5c-17.3,13.3-30.2,31.3-37.2,52c-7,20.6-7.7,42.8-2.1,63.9c5.7,21,17.4,39.9,33.8,54.2
	c16.4,14.3,36.6,23.5,58.2,26.3c28.9,3.8,58.2-4.1,81.3-21.9C1460.6,559.3,1475.7,533.1,1479.5,504.1z"/>
<path class="st18" d="M1366.3,560.2c-26.9-3.5-51.5-16.8-69.2-37.4c-17.7-20.6-27.1-46.9-26.6-74c-6.2,14.9-9.1,31.1-8.4,47.3
	c0.7,16.2,5,32,12.5,46.4c7.5,14.3,18.1,26.9,31,36.6c12.9,9.8,27.8,16.6,43.7,20c15.8,3.4,32.2,3.2,48-0.5s30.5-10.8,43.2-20.9
	c12.7-10.1,23-22.8,30.2-37.3c7.2-14.5,11.1-30.4,11.5-46.6c-9.3,22.3-25.7,40.8-46.7,52.9C1414.6,558.5,1390.2,563.3,1366.3,560.2z
	"/>
<path class="st19" d="M1482.4,512.9c2.8-21.6-0.8-43.5-10.4-63c-9.6-19.5-24.9-35.7-43.7-46.6c-18.9-10.9-40.5-15.9-62.2-14.5
	c-21.7,1.4-42.5,9.3-59.8,22.5c-17.3,13.3-30.2,31.3-37.2,52c-7,20.6-7.7,42.8-2,63.9c5.7,21,17.4,39.9,33.8,54.2
	c16.4,14.3,36.6,23.5,58.2,26.3c14.3,1.9,28.9,0.9,42.9-2.8c13.9-3.8,27-10.2,38.5-19s21.1-19.8,28.3-32.3
	C1475.9,541,1480.6,527.2,1482.4,512.9z"/>
<path class="st20" d="M1451.7,503.5c2-15.6-0.6-31.5-7.5-45.6c-7-14.1-18-25.8-31.6-33.7s-29.3-11.5-45-10.5
	c-15.7,1-30.7,6.7-43.2,16.3c-12.5,9.6-21.8,22.7-26.9,37.6c-5,14.9-5.6,31-1.5,46.2c4.1,15.2,12.6,28.8,24.4,39.2
	c11.8,10.4,26.5,17,42.1,19c20.9,2.7,42.1-2.9,58.8-15.8C1438.1,543.4,1449,524.4,1451.7,503.5z"/>
<path class="st21" d="M1452.2,508.9c2-15.6-0.6-31.5-7.6-45.6c-7-14.1-18-25.8-31.6-33.7s-29.3-11.5-45-10.5
	c-15.7,1-30.7,6.7-43.2,16.3c-12.5,9.6-21.8,22.7-26.9,37.6c-5,14.9-5.6,31-1.5,46.2s12.6,28.8,24.4,39.2c11.8,10.4,26.5,17,42.1,19
	c10.3,1.4,20.9,0.7,31-2c10.1-2.7,19.5-7.4,27.8-13.7c8.3-6.4,15.2-14.3,20.4-23.3C1447.4,529.3,1450.8,519.3,1452.2,508.9z"/>
<path class="st22" d="M1329.4,532c1.8-13,6.7-25.4,14.4-36.1c7.7-10.7,17.9-19.3,29.8-25c11.8-5.8,24.9-8.5,38.1-8
	c13.2,0.5,26,4.2,37.3,10.9c-3.9-12.3-10.8-23.5-20-32.6c-9.2-9.1-20.5-15.8-32.9-19.5c-12.4-3.8-25.5-4.4-38.2-2
	c-12.7,2.4-24.6,7.9-34.7,16c-10.1,8.1-18.1,18.5-23.3,30.3c-5.2,11.8-7.4,24.8-6.5,37.7c0.9,12.9,5,25.4,11.8,36.4
	c6.8,11,16.2,20.2,27.4,26.7C1328.9,555.6,1327.8,543.7,1329.4,532z"/>
<path class="st18" d="M1399.3,491.1c-4.6-1.9-9.7-2-15.3-0.3l-0.1-0.2c3.4-3,5.8-7,6.8-11.4c0.9-4.4,0.4-9-1.6-13.1
	c-1-2.5-2.6-4.7-4.7-6.5c-2-1.8-4.4-3-7-3.7c-3.9-1-8-1-11.9,0c-0.3-1.5-0.8-3-1.5-4.4c-2.6-5.7-6.7-9.3-9.4-8.1
	c-2.6,1.2-2.7,6.7-0.1,12.4c0.6,1.2,1.2,2.4,2,3.6l-3.7,1.7c-0.3-1.3-0.8-2.6-1.3-3.9c-2.6-5.7-6.7-9.3-9.4-8.1
	c-2.6,1.2-2.7,6.7-0.1,12.4c0.6,1.3,1.2,2.4,2,3.6l-7,3.1v0c-0.1,0.1-0.2,0.1-0.4,0.2c-6.1,2.7-10.1,6.8-9.1,9
	c1,2.3,6.8,1.9,12.8-0.8l0.4-0.2l27.6,61.3c-0.1,0.1-0.2,0.1-0.4,0.2c-6,2.7-10.1,6.8-9.1,9.1s6.8,1.9,12.8-0.8l0.4-0.2l7-3.1
	c0.3,1.3,0.8,2.6,1.3,3.9c2.6,5.7,6.8,9.3,9.4,8.1s2.7-6.7,0.1-12.4c-0.6-1.2-1.2-2.4-2-3.6l3.7-1.7c0.3,1.3,0.8,2.6,1.3,3.9
	c2.5,5.7,6.7,9.3,9.4,8.1s2.7-6.7,0.1-12.4c-0.6-1.4-1.4-2.7-2.3-4c4.3-2.8,7.7-6.7,9.9-11.3c2.9-6.3,2.9-12.7-0.1-19.4
	C1407.5,496.6,1404,493,1399.3,491.1z M1380.4,472.1c2,4.4,2.1,8.4,0.3,12.1c-1.8,3.7-5.2,6.7-10.2,8.9l-9.3,4.2l-11.3-25.1
	l10.5-4.7C1370.3,463,1377,464.6,1380.4,472.1L1380.4,472.1z M1400.6,518.6c-1.8,3.9-5.4,7-10.8,9.4l-12.4,5.6l-12.6-28l10.5-4.7
	c12.5-5.6,20.8-3.9,25,5.3C1402.3,510.6,1402.4,514.7,1400.6,518.6L1400.6,518.6z"/>
<path class="st23" d="M1397.1,492.2c-4.7-1.9-9.7-2-15.3-0.3l-0.1-0.2c3.4-3,5.8-7,6.8-11.4c0.9-4.4,0.4-9-1.6-13.1
	c-1-2.5-2.6-4.7-4.7-6.5c-2-1.8-4.4-3-7-3.7c-3.9-1-8-1-11.9,0c-0.3-1.5-0.8-3-1.5-4.5c-2.6-5.7-6.7-9.3-9.4-8.1
	c-2.6,1.2-2.7,6.7-0.1,12.4c0.6,1.3,1.2,2.4,2,3.6l-3.7,1.7c-0.3-1.3-0.8-2.6-1.3-3.9c-2.6-5.7-6.7-9.3-9.4-8.1s-2.7,6.7-0.1,12.4
	c0.6,1.2,1.2,2.4,2,3.6l-7,3.1c-0.1,0.1-0.2,0.1-0.4,0.2c-6.1,2.7-10.1,6.8-9.1,9.1c1,2.3,6.8,1.9,12.8-0.8c0.1-0.1,0.2-0.1,0.4-0.2
	l27.6,61.3c-0.1,0.1-0.3,0.1-0.4,0.2c-6,2.7-10.1,6.8-9.1,9c1,2.3,6.8,1.9,12.8-0.8c0.1-0.1,0.2-0.1,0.4-0.2l7-3.1
	c0.3,1.3,0.8,2.6,1.3,3.9c2.6,5.7,6.7,9.3,9.4,8.1c2.6-1.2,2.7-6.7,0.1-12.4c-0.5-1.3-1.2-2.5-2-3.6l3.7-1.7
	c0.3,1.3,0.8,2.6,1.4,3.9c2.5,5.7,6.7,9.3,9.4,8.1c2.6-1.2,2.7-6.7,0.1-12.4c-0.6-1.4-1.4-2.7-2.3-4c4.3-2.8,7.7-6.7,9.9-11.3
	c2.9-6.3,2.9-12.7-0.1-19.4C1405.2,497.7,1401.7,494.1,1397.1,492.2z M1378.1,473.3c2,4.4,2.1,8.4,0.3,12.1
	c-1.8,3.7-5.2,6.7-10.2,8.9l-9.3,4.2l-11.3-25.1l10.5-4.7C1368,464.2,1374.7,465.7,1378.1,473.3z M1398.3,519.7
	c-1.8,3.9-5.4,7-10.8,9.4l-12.4,5.6l-12.6-28l10.5-4.7c12.5-5.6,20.9-3.8,25,5.3C1400,511.7,1400.1,515.8,1398.3,519.7L1398.3,519.7
	z"/>
<path class="st24" d="M1488.8,516c20.8-13.2,45-19.8,69.6-19.2c24.6,0.6,48.4,8.5,68.5,22.6c20.1,14.2,35.5,34,44.4,56.9
	c8.8,22.9,10.7,48,5.3,72c-5.4,24-17.8,45.8-35.6,62.8c-17.8,16.9-40.2,28.2-64.5,32.4c-24.2,4.2-49.2,1.1-71.6-8.8
	c-22.5-10-41.5-26.4-54.6-47.1c-17.6-27.9-23.5-61.6-16.2-93.7C1441.3,561.6,1461,533.7,1488.8,516z"/>
<path class="st25" d="M1487.4,659.7c16.4,25.9,41.7,44.8,71.2,53.1c29.5,8.3,61,5.5,88.5-8c-12.3,13.5-27.5,24.1-44.4,31.1
	c-16.9,7-35.1,10.1-53.4,9.2c-18.3-0.9-36.1-5.8-52.3-14.4c-16.2-8.6-30.2-20.6-41.2-35.2c-11-14.6-18.6-31.5-22.3-49.4
	c-3.7-17.9-3.4-36.4,0.9-54.2c4.3-17.8,12.4-34.4,23.9-48.7c11.4-14.3,25.9-25.8,42.3-33.9c-18.4,20.1-29.6,45.8-32,72.9
	C1466.3,609.5,1472.9,636.7,1487.4,659.7z"/>
<path class="st26" d="M1485.5,501.6c20.8-13.1,45-19.8,69.6-19.2c24.6,0.6,48.4,8.5,68.5,22.6c20.1,14.2,35.5,34,44.4,56.9
	c8.8,22.9,10.7,48,5.3,72c-5.4,24-17.8,45.8-35.6,62.8c-17.8,16.9-40.2,28.2-64.5,32.4c-24.2,4.2-49.2,1.1-71.6-8.8
	c-22.5-10-41.5-26.4-54.6-47.1c-8.7-13.8-14.7-29.2-17.5-45.2c-2.8-16.1-2.4-32.6,1.2-48.5c3.6-15.9,10.3-31,19.7-44.3
	C1459.7,521.7,1471.7,510.3,1485.5,501.6z"/>
<path class="st27" d="M1498.4,527.3c15-9.5,32.5-14.3,50.3-13.9c17.8,0.4,35,6.1,49.5,16.4c14.5,10.2,25.7,24.5,32.1,41.1
	s7.7,34.7,3.8,52c-3.9,17.3-12.8,33.1-25.7,45.4c-12.9,12.2-29.1,20.4-46.6,23.4c-17.5,3-35.5,0.8-51.8-6.4
	c-16.2-7.2-30-19.1-39.5-34.1c-12.7-20.1-17-44.5-11.7-67.7C1464,560.3,1478.3,540.1,1498.4,527.3z"/>
<path class="st28" d="M1502.9,533.5c15-9.5,32.5-14.3,50.3-13.9c17.8,0.4,35,6.1,49.5,16.4c14.5,10.2,25.7,24.5,32.1,41.1
	s7.7,34.7,3.8,52c-3.9,17.3-12.8,33.1-25.7,45.4c-12.9,12.2-29.1,20.4-46.6,23.4c-17.5,3-35.5,0.8-51.8-6.4
	c-16.2-7.2-30-19.1-39.5-34.1c-6.3-10-10.6-21.1-12.6-32.7c-2-11.6-1.7-23.5,0.9-35c2.6-11.5,7.4-22.4,14.2-32
	C1484.3,548,1492.9,539.8,1502.9,533.5z"/>
<path class="st29" d="M1505.5,643.7c-3.5-13.5-3.8-27.7-0.9-41.3c2.9-13.7,9-26.4,17.7-37.3c8.7-10.9,19.9-19.6,32.6-25.4
	c12.7-5.8,26.6-8.6,40.5-8.2c-11.8-6.8-25.1-10.7-38.7-11.6c-13.6-0.9-27.2,1.3-39.8,6.5c-12.6,5.2-23.9,13.1-33,23.3
	c-9.1,10.2-15.7,22.3-19.4,35.4c-3.7,13.1-4.4,26.9-2,40.3c2.4,13.4,7.8,26.1,15.9,37.1c8,11,18.5,20,30.5,26.4
	c12,6.4,25.4,9.9,39,10.4c-10.4-5.9-19.6-13.9-26.9-23.4C1513.8,666.2,1508.5,655.3,1505.5,643.7z"/>
<path class="st30" d="M1606,619l13-8.4l-55.6-28.4l-55.6-28.4l0.8,15.5L1606,619z"/>
<path class="st30" d="M1509.3,584.9l1.6,31.3l3.2,62.4l52.4-34l26.3-17L1509.3,584.9z M1545.8,641.4l-19,12.3l-1.2-22.7l-1.2-22.7
	l20.2,10.3l20.2,10.3L1545.8,641.4z"/>
<path class="st26" d="M1606,611.2l13-8.4l-55.6-28.4l-55.6-28.4l0.8,15.5L1606,611.2z"/>
<path class="st26" d="M1509.3,577.1l1.6,31.3l3.2,62.4l52.4-34l26.3-17L1509.3,577.1z M1545.8,633.6l-19,12.3l-1.2-22.7l-1.2-22.7
	l20.2,10.3l20.2,10.3L1545.8,633.6z"/>
</svg>
